<?xml version="1.0" standalone="no"?>
<!DOCTYPE svg PUBLIC "-//W3C//DTD SVG 20010904//EN"
 "http://www.w3.org/TR/2001/REC-SVG-20010904/DTD/svg10.dtd">
<svg version="1.0" xmlns="http://www.w3.org/2000/svg"
 width="300.000000pt" height="89.000000pt" viewBox="0 0 300.000000 89.000000"
 preserveAspectRatio="xMidYMid meet">
<metadata>
Created by potrace 1.10, written by Peter Selinger 2001-2011
</metadata>
<g transform="translate(0.000000,89.000000) scale(0.100000,-0.100000)"
fill="#000000" stroke="none">
<path d="M2418 687 c-29 -11 -35 -22 -18 -32 6 -4 10 -77 10 -185 0 -108 -4
-181 -10 -185 -24 -15 -6 -25 42 -25 40 0 49 3 40 12 -8 8 -12 48 -12 114 l0
102 32 13 c76 31 100 8 106 -105 4 -68 1 -91 -12 -111 l-16 -25 56 0 c55 0 56
1 41 18 -13 15 -17 39 -17 114 0 111 -12 135 -72 145 -28 4 -46 0 -73 -16 -20
-11 -39 -21 -43 -21 -4 0 -6 45 -4 100 4 108 3 108 -50 87z"/>
<path d="M210 638 c0 -4 5 -10 10 -13 15 -9 13 -338 -2 -353 -9 -9 17 -12 119
-12 l131 0 6 32 c8 42 1 47 -24 15 -22 -28 -89 -44 -135 -33 l-25 6 0 170 c0
102 4 171 10 175 21 13 8 20 -40 20 -27 0 -50 -3 -50 -7z"/>
<path d="M1575 641 c-3 -2 -5 -20 -5 -39 l0 -34 29 31 c20 22 38 31 60 31 l31
0 0 -167 c0 -141 -3 -169 -17 -185 -15 -17 -14 -18 42 -18 46 0 56 3 47 12 -8
8 -12 64 -12 185 l0 173 30 0 c20 0 39 -9 54 -25 30 -32 33 -32 28 8 l-4 32
-139 0 c-77 1 -142 -1 -144 -4z"/>
<path d="M532 524 c-25 -11 -31 -18 -24 -27 6 -7 12 -54 14 -104 2 -78 6 -96
24 -114 28 -28 87 -28 125 0 35 26 39 26 39 1 0 -17 7 -20 42 -20 39 0 40 1
25 18 -14 15 -17 41 -17 140 0 67 -3 122 -7 122 -5 -1 -23 -9 -41 -19 -30 -15
-32 -19 -18 -30 12 -10 16 -33 16 -92 0 -79 0 -79 -32 -99 -37 -23 -68 -26
-86 -8 -8 8 -12 52 -12 130 0 65 -3 118 -7 117 -5 0 -23 -7 -41 -15z"/>
<path d="M842 521 c-30 -15 -32 -19 -18 -30 23 -19 23 -177 0 -209 -15 -22
-15 -22 42 -22 55 0 56 1 41 18 -13 14 -17 39 -17 110 0 91 0 92 30 107 41 21
87 19 100 -4 14 -28 13 -204 -2 -219 -9 -9 0 -12 40 -12 29 0 52 5 52 10 0 6
-4 10 -9 10 -5 0 -11 49 -13 110 -4 131 -12 145 -88 145 -35 0 -57 -6 -79 -23
l-31 -23 0 26 c0 29 -4 30 -48 6z"/>
<path d="M1230 534 c-74 -30 -113 -141 -75 -213 26 -51 121 -81 178 -58 104
44 123 193 33 252 -25 17 -111 28 -136 19z m88 -37 c55 -58 69 -161 27 -202
-32 -33 -70 -32 -105 3 -57 57 -66 181 -16 214 23 16 73 8 94 -15z"/>
<path d="M1904 526 c-59 -26 -96 -115 -74 -180 28 -87 128 -114 208 -56 23 17
42 35 42 40 0 15 -9 12 -37 -10 -66 -52 -173 5 -173 93 l0 27 105 0 c58 0 105
2 105 4 0 23 -26 60 -52 76 -38 23 -80 25 -124 6z m69 -8 c26 -13 46 -38 47
-55 0 -9 -22 -13 -75 -13 l-76 0 16 31 c9 16 26 34 38 39 29 12 25 12 50 -2z"/>
<path d="M2201 523 c-48 -25 -72 -62 -79 -118 -9 -86 43 -145 130 -145 44 0
102 31 121 65 11 20 -2 19 -24 -1 -10 -9 -38 -19 -63 -21 -42 -5 -48 -3 -81
30 -28 28 -35 42 -35 76 0 53 17 89 51 106 24 13 29 12 40 -1 7 -8 26 -22 42
-30 26 -14 31 -14 48 2 17 15 18 20 6 31 -23 24 -117 27 -156 6z"/>
</g>
</svg>
