<?xml version="1.0" standalone="no"?>
<!DOCTYPE svg PUBLIC "-//W3C//DTD SVG 20010904//EN"
 "http://www.w3.org/TR/2001/REC-SVG-20010904/DTD/svg10.dtd">
<svg version="1.0" xmlns="http://www.w3.org/2000/svg"
 width="27.000000pt" height="27.000000pt" viewBox="0 0 27.000000 27.000000"
 preserveAspectRatio="xMidYMid meet">

<g transform="translate(0.000000,27.000000) scale(0.100000,-0.100000)"
fill="#000000" stroke="none">
<path d="M69 245 c-46 -25 -63 -64 -60 -136 1 -31 39 -52 79 -44 27 5 27 5 3
-5 -14 -6 -31 -8 -38 -6 -26 10 -12 -14 17 -29 40 -21 89 -19 128 5 39 24 41
32 5 25 -26 -5 -26 -5 -5 4 12 6 22 16 22 23 0 10 2 10 9 -1 22 -35 33 78 11
119 -28 52 -116 75 -171 45z m91 -38 c0 -6 -6 -2 -14 8 -12 16 -16 17 -30 6
-9 -7 -16 -19 -16 -27 0 -7 -4 -16 -10 -19 -12 -7 6 43 22 62 9 11 14 10 29
-3 11 -10 19 -22 19 -27z m-106 -43 c-16 -24 -16 -26 5 -55 12 -16 17 -29 12
-29 -5 0 -13 5 -17 11 -5 8 -9 7 -14 -1 -5 -7 -7 5 -6 28 1 22 8 47 15 56 21
25 23 19 5 -10z m150 10 c9 -8 16 -23 16 -32 0 -12 -4 -9 -13 8 -7 13 -23 27
-37 31 -23 6 -23 7 -3 8 12 1 29 -6 37 -15z m-63 -11 c13 -15 12 -15 -8 -4
-24 12 -29 21 -14 21 5 0 15 -7 22 -17z m19 -48 c-15 -40 -21 -27 -7 18 7 21
13 32 15 24 2 -7 -2 -26 -8 -42z m-64 30 c-11 -8 -24 -15 -30 -15 -5 0 -1 7
10 15 10 8 24 14 29 14 6 0 1 -6 -9 -14z m109 -25 c10 -11 16 -20 13 -20 -3 0
-13 9 -23 20 -10 11 -16 20 -13 20 3 0 13 -9 23 -20z m-85 -22 l23 -33 -26 24
c-15 14 -27 28 -27 33 0 14 5 9 30 -24z m50 -33 c-33 -34 -60 -45 -60 -25 0 5
6 7 13 4 7 -2 26 9 42 26 16 16 31 30 34 30 3 0 -10 -16 -29 -35z"/>
</g>
</svg>
